<svg xmlns="http://www.w3.org/2000/svg" width="256" height="256" viewBox="0 0 100 100"><rect width="100" height="100" rx="0" fill="#1a56db"></rect><path d="M34.00 65.51L34.00 65.51Q34.00 61.29 31.04 59.01Q28.07 56.72 20.34 54.39Q12.60 52.07 8.03 49.21L8.03 49.21Q-0.71 43.72-0.71 34.88L-0.71 34.88Q-0.71 27.15 5.59 22.14Q11.90 17.13 21.96 17.13L21.96 17.13Q28.64 17.13 33.87 19.59Q39.10 22.05 42.09 26.60Q45.08 31.15 45.08 36.68L45.08 36.68L34.00 36.68Q34.00 31.67 30.86 28.84Q27.72 26.01 21.88 26.01L21.88 26.01Q16.43 26.01 13.42 28.33Q10.41 30.66 10.41 34.84L10.41 34.84Q10.41 38.35 13.66 40.71Q16.91 43.06 24.38 45.28Q31.85 47.50 36.38 50.33Q40.90 53.16 43.01 56.83Q45.12 60.50 45.12 65.42L45.12 65.42Q45.12 73.42 38.99 78.15Q32.86 82.87 22.36 82.87L22.36 82.87Q15.42 82.87 9.59 80.30Q3.77 77.73 0.54 73.20Q-2.69 68.68-2.69 62.66L-2.69 62.66L8.43 62.66Q8.43 68.11 12.03 71.09Q15.63 74.08 22.36 74.08L22.36 74.08Q28.16 74.08 31.08 71.73Q34.00 69.38 34.00 65.51ZM79.22 58.22L66.00 58.22L66.00 81.99L54.88 81.99L54.88 18.01L79.36 18.01Q90.08 18.01 96.38 23.59Q102.69 29.17 102.69 38.35L102.69 38.35Q102.69 47.76 96.52 52.99Q90.34 58.22 79.22 58.22L79.22 58.22ZM66.00 26.97L66.00 49.30L79.36 49.30Q85.29 49.30 88.41 46.51Q91.53 43.72 91.53 38.44L91.53 38.44Q91.53 33.26 88.36 30.16Q85.20 27.06 79.66 26.97L79.66 26.97L66.00 26.97Z" fill="#fff"></path></svg>